<svg xmlns="http://www.w3.org/2000/svg" xmlns:xlink="http://www.w3.org/1999/xlink" width="1920" zoomAndPan="magnify" viewBox="0 0 1440 809.999993" height="1080" preserveAspectRatio="xMidYMid meet" version="1.0"><defs><filter x="0%" y="0%" width="100%" height="100%" id="ee59f28776"><feColorMatrix values="0 0 0 0 1 0 0 0 0 1 0 0 0 0 1 0 0 0 1 0" color-interpolation-filters="sRGB"/></filter><mask id="24e4b3ed3f"><g filter="url(#ee59f28776)"><rect x="-144" width="1728" fill="#000000" y="-80.999999" height="971.999992" fill-opacity="0.2275"/></g></mask><clipPath id="667bf87bcf"><path d="M 0 380 L 74 380 L 74 499 L 0 499 Z M 0 380 " clip-rule="nonzero"/></clipPath><clipPath id="0a0e6251de"><path d="M 0 291 L 3 291 L 3 381 L 0 381 Z M 0 291 " clip-rule="nonzero"/></clipPath><clipPath id="283c7f16cc"><path d="M 0 213 L 37 213 L 37 266 L 0 266 Z M 0 213 " clip-rule="nonzero"/></clipPath><clipPath id="1dc8c3b397"><path d="M 0 173 L 22 173 L 22 211 L 0 211 Z M 0 173 " clip-rule="nonzero"/></clipPath><clipPath id="e1e1d63e14"><path d="M 171 0 L 229 0 L 229 48 L 171 48 Z M 171 0 " clip-rule="nonzero"/></clipPath><clipPath id="f91eef5945"><path d="M 157 0 L 184 0 L 184 1 L 157 1 Z M 157 0 " clip-rule="nonzero"/></clipPath><clipPath id="270b31fad9"><path d="M 189 800 L 215 800 L 215 810 L 189 810 Z M 189 800 " clip-rule="nonzero"/></clipPath><clipPath id="bceda8ebc0"><path d="M 216 0 L 237 0 L 237 10 L 216 10 Z M 216 0 " clip-rule="nonzero"/></clipPath><clipPath id="d737d3c901"><path d="M 145 0 L 171 0 L 171 25 L 145 25 Z M 145 0 " clip-rule="nonzero"/></clipPath><clipPath id="0d9abc3b1f"><path d="M 413 0 L 541 0 L 541 94 L 413 94 Z M 413 0 " clip-rule="nonzero"/></clipPath><clipPath id="b7cbeebd15"><path d="M 346 762 L 417 762 L 417 810 L 346 810 Z M 346 762 " clip-rule="nonzero"/></clipPath><clipPath id="1f249df095"><path d="M 492 756 L 541 756 L 541 810 L 492 810 Z M 492 756 " clip-rule="nonzero"/></clipPath><clipPath id="1f3a1ddd6a"><path d="M 337 0 L 403 0 L 403 55 L 337 55 Z M 337 0 " clip-rule="nonzero"/></clipPath><clipPath id="31c16a2046"><path d="M 0 30 L 35 30 L 35 149 L 0 149 Z M 0 30 " clip-rule="nonzero"/></clipPath><clipPath id="959bc1f361"><path d="M 0 0 L 43 0 L 43 33 L 0 33 Z M 0 0 " clip-rule="nonzero"/></clipPath><clipPath id="fa53e1d044"><path d="M 0 791 L 43 791 L 43 810 L 0 810 Z M 0 791 " clip-rule="nonzero"/></clipPath><clipPath id="93defc439c"><rect x="0" width="720" y="0" height="810"/></clipPath><mask id="46d7968496"><g filter="url(#ee59f28776)"><rect x="-144" width="1728" fill="#000000" y="-80.999999" height="971.999992" fill-opacity="0.2275"/></g></mask><clipPath id="c50bc77122"><path d="M 715 454 L 720 454 L 720 482 L 715 482 Z M 715 454 " clip-rule="nonzero"/></clipPath><clipPath id="fa90e65116"><path d="M 297 0 L 356 0 L 356 48 L 297 48 Z M 297 0 " clip-rule="nonzero"/></clipPath><clipPath id="f74fb232b4"><path d="M 283 0 L 310 0 L 310 1 L 283 1 Z M 283 0 " clip-rule="nonzero"/></clipPath><clipPath id="ccd65514d4"><path d="M 316 800 L 341 800 L 341 810 L 316 810 Z M 316 800 " clip-rule="nonzero"/></clipPath><clipPath id="9eaf34583f"><path d="M 343 0 L 364 0 L 364 10 L 343 10 Z M 343 0 " clip-rule="nonzero"/></clipPath><clipPath id="3dd3db87fb"><path d="M 272 0 L 298 0 L 298 25 L 272 25 Z M 272 0 " clip-rule="nonzero"/></clipPath><clipPath id="3a0d7da5e9"><path d="M 668 193 L 720 193 L 720 315 L 668 315 Z M 668 193 " clip-rule="nonzero"/></clipPath><clipPath id="1a27429be6"><path d="M 539 0 L 668 0 L 668 94 L 539 94 Z M 539 0 " clip-rule="nonzero"/></clipPath><clipPath id="2738457385"><path d="M 473 762 L 544 762 L 544 810 L 473 810 Z M 473 762 " clip-rule="nonzero"/></clipPath><clipPath id="6f7e24fc1c"><path d="M 619 756 L 667 756 L 667 810 L 619 810 Z M 619 756 " clip-rule="nonzero"/></clipPath><clipPath id="5aa999cc4d"><path d="M 464 0 L 530 0 L 530 55 L 464 55 Z M 464 0 " clip-rule="nonzero"/></clipPath><clipPath id="bf1ebe6d73"><path d="M 33 0 L 90 0 L 90 32 L 33 32 Z M 33 0 " clip-rule="nonzero"/></clipPath><clipPath id="5069db5dbd"><path d="M 33 789 L 89 789 L 89 810 L 33 810 Z M 33 789 " clip-rule="nonzero"/></clipPath><clipPath id="a8f7d1376b"><path d="M 111 0 L 169 0 L 169 33 L 111 33 Z M 111 0 " clip-rule="nonzero"/></clipPath><clipPath id="a701b923a1"><path d="M 113 791 L 169 791 L 169 810 L 113 810 Z M 113 791 " clip-rule="nonzero"/></clipPath><clipPath id="ce9276d93f"><rect x="0" width="720" y="0" height="810"/></clipPath></defs><g mask="url(#24e4b3ed3f)"><g transform="matrix(1, 0, 0, 1, 0, 0.000000000000039746)"><g clip-path="url(#93defc439c)"><path fill="#f285b8" d="M 706.734375 696.457031 C 708.554688 700.839844 708.554688 700.839844 708.554688 700.839844 C 711.941406 704.570312 710.871094 711.5 706.179688 716.238281 C 706.179688 716.238281 686.476562 736.160156 693.539062 753.160156 C 698.054688 764.007812 708.230469 770.988281 720 772.695312 L 720 655.519531 C 706.636719 665.382812 700.746094 682.050781 706.734375 696.457031 " fill-opacity="1" fill-rule="nonzero"/><path fill="#f285b8" d="M 652.527344 589.351562 C 639.132812 597.050781 638.160156 620.480469 650.355469 641.683594 C 662.550781 662.890625 683.28125 673.84375 696.667969 666.144531 C 710.0625 658.445312 711.027344 635.015625 698.839844 613.8125 C 686.648438 592.601562 665.914062 581.648438 652.527344 589.351562 " fill-opacity="1" fill-rule="nonzero"/><path fill="#f285b8" d="M 719.296875 601.960938 C 719.511719 602.839844 719.757812 603.707031 720 604.566406 L 720 568.84375 C 716.777344 577.949219 716.277344 589.753906 719.296875 601.960938 " fill-opacity="1" fill-rule="nonzero"/><path fill="#f285b8" d="M 627.964844 670.765625 C 619 680.050781 623.644531 699.082031 638.347656 713.285156 C 653.046875 727.484375 672.234375 731.46875 681.199219 722.191406 C 690.171875 712.902344 685.519531 693.871094 670.816406 679.664062 C 656.117188 665.46875 636.929688 661.476562 627.964844 670.765625 " fill-opacity="1" fill-rule="nonzero"/><g clip-path="url(#667bf87bcf)"><path fill="#cb6ce6" d="M 54.289062 438.300781 C 48.597656 434.808594 46.019531 427.757812 48.546875 422.621094 C 48.546875 422.621094 48.546875 422.621094 48.914062 417.234375 C 50.1875 398.523438 34.167969 382.195312 13.121094 380.757812 C -7.925781 379.320312 -26.027344 393.316406 -27.304688 412.027344 C -27.628906 416.761719 -27.628906 416.761719 -27.628906 416.761719 C -26.261719 421.601562 -30.304688 427.324219 -36.617188 429.480469 C -36.617188 429.480469 -63.144531 438.527344 -64.398438 456.890625 C -65.679688 475.59375 -49.652344 491.929688 -28.605469 493.367188 C -16.214844 494.214844 -7.527344 488.609375 -7.527344 488.609375 C -1.921875 485 6.6875 485.722656 11.613281 490.222656 C 11.613281 490.222656 20.011719 497.910156 33.007812 498.792969 C 54.050781 500.230469 72.152344 486.234375 73.425781 467.523438 C 74.574219 450.742188 54.289062 438.300781 54.289062 438.300781 " fill-opacity="1" fill-rule="nonzero"/></g><g clip-path="url(#0a0e6251de)"><path fill="#cb6ce6" d="M 2.488281 334.527344 C 3.941406 358.949219 -7.375 379.484375 -22.796875 380.402344 C -38.210938 381.320312 -51.890625 362.269531 -53.339844 337.855469 C -54.796875 313.441406 -43.484375 292.902344 -28.058594 291.984375 C -12.644531 291.0625 1.03125 310.117188 2.488281 334.527344 " fill-opacity="1" fill-rule="nonzero"/></g><path fill="#cb6ce6" d="M 80.664062 345.246094 C 75.324219 369.121094 58.785156 385.738281 43.710938 382.363281 C 28.636719 379 20.746094 356.921875 26.082031 333.046875 C 31.417969 309.175781 47.957031 292.554688 63.035156 295.925781 C 78.105469 299.292969 86 321.378906 80.664062 345.246094 " fill-opacity="1" fill-rule="nonzero"/><path fill="#cb6ce6" d="M 112.488281 414.011719 C 103.503906 432.371094 86.820312 442.65625 75.230469 436.988281 C 63.632812 431.308594 61.519531 411.824219 70.503906 393.46875 C 79.496094 375.105469 96.171875 364.824219 107.761719 370.492188 C 119.359375 376.167969 121.472656 395.648438 112.488281 414.011719 " fill-opacity="1" fill-rule="nonzero"/><path fill="#ff66c4" d="M 502.878906 495.539062 C 496.472656 493.667969 492.128906 487.546875 493.21875 481.921875 C 493.21875 481.921875 493.21875 481.921875 492.15625 476.632812 C 488.460938 458.242188 468.707031 446.707031 448.019531 450.851562 C 427.339844 455.007812 413.566406 473.277344 417.253906 491.660156 C 418.1875 496.3125 418.1875 496.3125 418.1875 496.3125 C 420.777344 500.625 418.382812 507.214844 412.855469 510.953125 C 412.855469 510.953125 389.644531 526.660156 393.265625 544.707031 C 396.957031 563.089844 416.714844 574.632812 437.394531 570.480469 C 449.574219 568.039062 456.480469 560.347656 456.480469 560.347656 C 460.941406 555.382812 469.441406 553.816406 475.375 556.859375 C 475.375 556.859375 485.5 562.066406 498.265625 559.507812 C 518.949219 555.351562 532.726562 537.082031 529.035156 518.699219 C 525.730469 502.199219 502.878906 495.539062 502.878906 495.539062 " fill-opacity="1" fill-rule="nonzero"/><path fill="#ff66c4" d="M 425.601562 409.054688 C 433.429688 432.234375 427.910156 455.019531 413.285156 459.96875 C 398.648438 464.910156 380.445312 450.132812 372.613281 426.957031 C 364.785156 403.785156 370.296875 380.992188 384.933594 376.050781 C 399.5625 371.101562 417.773438 385.882812 425.601562 409.054688 " fill-opacity="1" fill-rule="nonzero"/><path fill="#ff66c4" d="M 503.84375 398.824219 C 504.972656 423.265625 493.386719 443.648438 477.960938 444.363281 C 462.53125 445.078125 449.109375 425.847656 447.972656 401.417969 C 446.839844 376.984375 458.429688 356.597656 473.851562 355.882812 C 489.285156 355.167969 502.707031 374.398438 503.84375 398.824219 " fill-opacity="1" fill-rule="nonzero"/><path fill="#ff66c4" d="M 552.644531 456.792969 C 548.804688 476.867188 535.414062 491.179688 522.738281 488.761719 C 510.058594 486.339844 502.890625 468.09375 506.730469 448.019531 C 510.570312 427.941406 523.949219 413.628906 536.628906 416.050781 C 549.308594 418.472656 556.46875 436.71875 552.644531 456.792969 " fill-opacity="1" fill-rule="nonzero"/><path fill="#ff66c4" d="M 385.285156 468.199219 C 396.941406 484.992188 397.800781 504.570312 387.195312 511.925781 C 376.589844 519.289062 358.550781 511.636719 346.894531 494.851562 C 335.238281 478.054688 334.386719 458.484375 344.984375 451.117188 C 355.589844 443.757812 373.636719 451.40625 385.285156 468.199219 " fill-opacity="1" fill-rule="nonzero"/><g clip-path="url(#283c7f16cc)"><path fill="#ff66c4" d="M 23.746094 231.460938 C 20.96875 230.863281 18.933594 228.398438 19.222656 225.976562 C 19.222656 225.976562 19.222656 225.976562 18.605469 223.761719 C 16.472656 216.070312 7.726562 211.78125 -0.929688 214.183594 C -9.585938 216.578125 -14.871094 224.761719 -12.734375 232.453125 C -12.199219 234.402344 -12.199219 234.402344 -12.199219 234.402344 C -10.964844 236.152344 -11.777344 239.027344 -14.007812 240.78125 C -14.007812 240.78125 -23.382812 248.171875 -21.289062 255.71875 C -19.15625 263.414062 -10.40625 267.699219 -1.75 265.304688 C 3.34375 263.886719 6.039062 260.410156 6.039062 260.410156 C 7.777344 258.164062 11.34375 257.238281 13.953125 258.347656 C 13.953125 258.347656 18.417969 260.246094 23.757812 258.761719 C 32.410156 256.367188 37.699219 248.183594 35.566406 240.492188 C 33.648438 233.585938 23.746094 231.460938 23.746094 231.460938 " fill-opacity="1" fill-rule="nonzero"/></g><g clip-path="url(#1dc8c3b397)"><path fill="#ff66c4" d="M 21.171875 190.367188 C 22.40625 200.707031 18.113281 209.71875 11.585938 210.5 C 5.054688 211.28125 -1.238281 203.53125 -2.472656 193.1875 C -3.707031 182.84375 0.585938 173.835938 7.109375 173.054688 C 13.644531 172.273438 19.933594 180.027344 21.171875 190.367188 " fill-opacity="1" fill-rule="nonzero"/></g><path fill="#ff66c4" d="M 43.675781 213.472656 C 42.667969 222.117188 37.421875 228.605469 31.96875 227.96875 C 26.507812 227.332031 22.90625 219.804688 23.917969 211.164062 C 24.925781 202.519531 30.164062 196.027344 35.625 196.664062 C 41.085938 197.308594 44.6875 204.828125 43.675781 213.472656 " fill-opacity="1" fill-rule="nonzero"/><path fill="#f285b8" d="M 203.289062 462.503906 C 202.972656 459.679688 204.675781 456.96875 207.054688 456.476562 C 207.054688 456.476562 207.054688 456.476562 208.964844 455.191406 C 215.585938 450.734375 216.886719 441.082031 211.875 433.625 C 206.859375 426.175781 197.421875 423.757812 190.800781 428.210938 C 189.125 429.339844 189.125 429.339844 189.125 429.339844 C 187.855469 431.066406 184.867188 431.203125 182.5 429.644531 C 182.5 429.644531 172.523438 423.09375 166.027344 427.46875 C 159.402344 431.925781 158.097656 441.582031 163.117188 449.027344 C 166.070312 453.417969 170.226562 454.875 170.226562 454.875 C 172.902344 455.816406 174.910156 458.898438 174.6875 461.726562 C 174.6875 461.726562 174.300781 466.558594 177.394531 471.160156 C 182.414062 478.605469 191.84375 481.035156 198.472656 476.574219 C 204.410156 472.574219 203.289062 462.503906 203.289062 462.503906 " fill-opacity="1" fill-rule="nonzero"/><path fill="#f285b8" d="M 224.632812 417.972656 C 216.800781 424.84375 206.945312 426.40625 202.605469 421.464844 C 198.269531 416.523438 201.097656 406.949219 208.925781 400.078125 C 216.75 393.214844 226.613281 391.644531 230.949219 396.585938 C 235.289062 401.527344 232.460938 411.109375 224.632812 417.972656 " fill-opacity="1" fill-rule="nonzero"/><path fill="#f285b8" d="M 241.457031 447.054688 C 232.039062 451.496094 222.128906 450.277344 219.320312 444.332031 C 216.519531 438.382812 221.882812 429.957031 231.300781 425.519531 C 240.714844 421.070312 250.621094 422.292969 253.429688 428.238281 C 256.238281 434.183594 250.875 442.609375 241.457031 447.054688 " fill-opacity="1" fill-rule="nonzero"/><path fill="#f285b8" d="M 226.664062 475.71875 C 218.140625 477.492188 210.332031 474.578125 209.203125 469.203125 C 208.078125 463.820312 214.078125 458.019531 222.597656 456.234375 C 231.113281 454.464844 238.929688 457.375 240.054688 462.757812 C 241.175781 468.140625 235.183594 473.933594 226.664062 475.71875 " fill-opacity="1" fill-rule="nonzero"/><path fill="#f285b8" d="M 194.789062 411.8125 C 190.097656 419.140625 182.542969 422.679688 177.917969 419.71875 C 173.285156 416.753906 173.335938 408.414062 178.027344 401.082031 C 182.722656 393.75 190.273438 390.214844 194.910156 393.171875 C 199.535156 396.140625 199.484375 404.480469 194.789062 411.8125 " fill-opacity="1" fill-rule="nonzero"/><path fill="#cb6ce6" d="M 517.914062 671.9375 C 517.589844 669.117188 519.292969 666.40625 521.679688 665.914062 C 521.679688 665.914062 521.679688 665.914062 523.582031 664.628906 C 530.207031 660.171875 531.511719 650.519531 526.492188 643.0625 C 521.476562 635.613281 512.046875 633.191406 505.417969 637.648438 C 503.746094 638.777344 503.746094 638.777344 503.746094 638.777344 C 502.472656 640.503906 499.484375 640.640625 497.117188 639.078125 C 497.117188 639.078125 487.140625 632.53125 480.644531 636.90625 C 474.023438 641.363281 472.714844 651.023438 477.734375 658.464844 C 480.695312 662.855469 484.84375 664.3125 484.84375 664.3125 C 487.519531 665.25 489.527344 668.335938 489.304688 671.171875 C 489.304688 671.171875 488.917969 675.996094 492.015625 680.59375 C 497.03125 688.042969 506.460938 690.472656 513.089844 686.015625 C 519.027344 682.011719 517.914062 671.9375 517.914062 671.9375 " fill-opacity="1" fill-rule="nonzero"/><path fill="#cb6ce6" d="M 539.25 627.417969 C 531.425781 634.28125 521.5625 635.84375 517.222656 630.902344 C 512.886719 625.960938 515.714844 616.386719 523.542969 609.515625 C 531.375 602.648438 541.230469 601.085938 545.570312 606.023438 C 549.90625 610.972656 547.078125 620.546875 539.25 627.417969 " fill-opacity="1" fill-rule="nonzero"/><path fill="#cb6ce6" d="M 556.074219 656.488281 C 546.65625 660.933594 536.75 659.71875 533.945312 653.765625 C 531.136719 647.820312 536.5 639.402344 545.917969 634.957031 C 555.332031 630.515625 565.242188 631.730469 568.046875 637.675781 C 570.855469 643.621094 565.492188 652.046875 556.074219 656.488281 " fill-opacity="1" fill-rule="nonzero"/><path fill="#cb6ce6" d="M 541.28125 685.15625 C 532.765625 686.933594 524.949219 684.015625 523.820312 678.640625 C 522.699219 673.257812 528.695312 667.457031 537.214844 665.679688 C 545.734375 663.898438 553.554688 666.820312 554.675781 672.195312 C 555.800781 677.578125 549.800781 683.378906 541.28125 685.15625 " fill-opacity="1" fill-rule="nonzero"/><path fill="#cb6ce6" d="M 509.40625 621.25 C 504.714844 628.578125 497.160156 632.121094 492.535156 629.15625 C 487.910156 626.191406 487.960938 617.847656 492.652344 610.519531 C 497.34375 603.195312 504.898438 599.648438 509.527344 602.609375 C 514.152344 605.578125 514.101562 613.925781 509.40625 621.25 " fill-opacity="1" fill-rule="nonzero"/><path fill="#f285b8" d="M 659.984375 469.457031 C 657.207031 468.867188 655.167969 466.40625 655.453125 463.984375 C 655.453125 463.984375 655.453125 463.984375 654.839844 461.765625 C 652.691406 454.082031 643.9375 449.804688 635.289062 452.21875 C 626.636719 454.628906 621.363281 462.824219 623.507812 470.507812 C 624.050781 472.457031 624.050781 472.457031 624.050781 472.457031 C 625.285156 474.203125 624.480469 477.085938 622.246094 478.84375 C 622.246094 478.84375 612.890625 486.246094 614.996094 493.792969 C 617.140625 501.476562 625.890625 505.757812 634.546875 503.34375 C 639.636719 501.917969 642.328125 498.441406 642.328125 498.441406 C 644.070312 496.195312 647.625 495.257812 650.238281 496.367188 C 650.238281 496.367188 654.699219 498.257812 660.042969 496.765625 C 668.691406 494.351562 673.96875 486.160156 671.824219 478.46875 C 669.898438 471.570312 659.984375 469.457031 659.984375 469.457031 " fill-opacity="1" fill-rule="nonzero"/><path fill="#f285b8" d="M 624.453125 435.183594 C 628.5 444.769531 626.878906 454.621094 620.824219 457.179688 C 614.765625 459.738281 606.570312 454.035156 602.519531 444.449219 C 598.464844 434.855469 600.085938 425.003906 606.140625 422.445312 C 612.199219 419.882812 620.398438 425.585938 624.453125 435.183594 " fill-opacity="1" fill-rule="nonzero"/><path fill="#f285b8" d="M 657.351562 428.371094 C 658.597656 438.707031 654.320312 447.730469 647.789062 448.515625 C 641.265625 449.304688 634.960938 441.566406 633.710938 431.230469 C 632.460938 420.894531 636.730469 411.871094 643.261719 411.078125 C 649.792969 410.289062 656.097656 418.035156 657.351562 428.371094 " fill-opacity="1" fill-rule="nonzero"/><path fill="#f285b8" d="M 679.894531 451.445312 C 678.890625 460.085938 673.667969 466.585938 668.207031 465.960938 C 662.746094 465.332031 659.128906 457.808594 660.121094 449.160156 C 661.117188 440.523438 666.347656 434.019531 671.816406 434.648438 C 677.269531 435.28125 680.886719 442.792969 679.894531 451.445312 " fill-opacity="1" fill-rule="nonzero"/><path fill="#f285b8" d="M 609.199219 461.558594 C 614.675781 468.324219 615.660156 476.605469 611.386719 480.0625 C 607.113281 483.523438 599.210938 480.84375 593.738281 474.078125 C 588.257812 467.320312 587.28125 459.039062 591.546875 455.570312 C 595.820312 452.121094 603.722656 454.796875 609.199219 461.558594 " fill-opacity="1" fill-rule="nonzero"/><path fill="#ff66c4" d="M 427.761719 266.867188 C 424.976562 266.277344 422.945312 263.816406 423.226562 261.394531 C 423.226562 261.394531 423.226562 261.394531 422.609375 259.175781 C 420.464844 251.492188 411.707031 247.210938 403.058594 249.628906 C 394.410156 252.035156 389.132812 260.230469 391.277344 267.917969 C 391.824219 269.867188 391.824219 269.867188 391.824219 269.867188 C 393.058594 271.613281 392.25 274.492188 390.023438 276.253906 C 390.023438 276.253906 380.660156 283.65625 382.765625 291.203125 C 384.914062 298.886719 393.667969 303.164062 402.316406 300.75 C 407.410156 299.332031 410.101562 295.847656 410.101562 295.847656 C 411.839844 293.605469 415.398438 292.664062 418.015625 293.773438 C 418.015625 293.773438 422.472656 295.664062 427.8125 294.175781 C 436.464844 291.757812 441.738281 283.570312 439.59375 275.878906 C 437.671875 268.980469 427.761719 266.867188 427.761719 266.867188 " fill-opacity="1" fill-rule="nonzero"/><path fill="#ff66c4" d="M 392.222656 232.589844 C 396.273438 242.179688 394.652344 252.027344 388.59375 254.589844 C 382.535156 257.148438 374.347656 251.445312 370.289062 241.855469 C 366.234375 232.261719 367.855469 222.410156 373.921875 219.851562 C 379.972656 217.292969 388.167969 222.996094 392.222656 232.589844 " fill-opacity="1" fill-rule="nonzero"/><path fill="#ff66c4" d="M 425.121094 225.777344 C 426.371094 236.113281 422.097656 245.136719 415.566406 245.925781 C 409.039062 246.714844 402.730469 238.976562 401.484375 228.640625 C 400.230469 218.296875 404.507812 209.28125 411.03125 208.484375 C 417.5625 207.699219 423.871094 215.441406 425.121094 225.777344 " fill-opacity="1" fill-rule="nonzero"/><path fill="#ff66c4" d="M 447.664062 248.851562 C 446.667969 257.496094 441.4375 263.992188 435.976562 263.371094 C 430.515625 262.738281 426.902344 255.21875 427.898438 246.570312 C 428.894531 237.933594 434.125 231.429688 439.585938 232.058594 C 445.046875 232.6875 448.65625 240.203125 447.664062 248.851562 " fill-opacity="1" fill-rule="nonzero"/><path fill="#ff66c4" d="M 376.972656 258.964844 C 382.453125 265.730469 383.429688 274.015625 379.15625 277.472656 C 374.886719 280.929688 366.988281 278.253906 361.511719 271.488281 C 356.03125 264.726562 355.050781 256.445312 359.316406 252.980469 C 363.589844 249.527344 371.492188 252.207031 376.972656 258.964844 " fill-opacity="1" fill-rule="nonzero"/><g clip-path="url(#e1e1d63e14)"><path fill="#cb6ce6" d="M 216.449219 12.484375 C 213.671875 11.890625 211.628906 9.429688 211.917969 7.007812 C 211.917969 7.007812 211.917969 7.007812 211.300781 4.792969 C 209.15625 -2.894531 200.402344 -7.171875 191.75 -4.757812 C 183.101562 -2.347656 177.824219 5.847656 179.972656 13.53125 C 180.515625 15.480469 180.515625 15.480469 180.515625 15.480469 C 181.75 17.226562 180.941406 20.109375 178.710938 21.867188 C 178.710938 21.867188 169.351562 29.269531 171.460938 36.816406 C 173.605469 44.503906 182.355469 48.78125 191.011719 46.367188 C 196.101562 44.941406 198.792969 41.464844 198.792969 41.464844 C 200.53125 39.21875 204.089844 38.28125 206.703125 39.390625 C 206.703125 39.390625 211.164062 41.28125 216.507812 39.789062 C 225.15625 37.375 230.433594 29.183594 228.285156 21.492188 C 226.363281 14.597656 216.449219 12.484375 216.449219 12.484375 " fill-opacity="1" fill-rule="nonzero"/></g><g clip-path="url(#f91eef5945)"><path fill="#cb6ce6" d="M 158.984375 -12.527344 C 163.035156 -2.941406 171.230469 2.761719 177.289062 0.203125 C 182.625 -2.046875 184.511719 -9.960938 182.117188 -18.375 L 157.210938 -18.375 C 157.574219 -16.460938 158.15625 -14.488281 158.984375 -12.527344 " fill-opacity="1" fill-rule="nonzero"/></g><g clip-path="url(#270b31fad9)"><path fill="#cb6ce6" d="M 213.816406 818.144531 C 212.5625 807.808594 206.253906 800.0625 199.726562 800.851562 C 193.195312 801.644531 188.921875 810.667969 190.175781 821.003906 C 190.492188 823.667969 191.160156 826.15625 192.074219 828.375 L 213.179688 828.375 C 213.992188 825.335938 214.253906 821.832031 213.816406 818.144531 " fill-opacity="1" fill-rule="nonzero"/></g><g clip-path="url(#bceda8ebc0)"><path fill="#cb6ce6" d="M 216.585938 -7.816406 C 215.59375 0.832031 219.210938 8.355469 224.671875 8.984375 C 230.128906 9.609375 235.355469 3.109375 236.359375 -5.53125 C 236.9375 -10.585938 235.9375 -15.246094 233.925781 -18.375 L 220.632812 -18.375 C 218.585938 -15.757812 217.078125 -12.042969 216.585938 -7.816406 " fill-opacity="1" fill-rule="nonzero"/></g><g clip-path="url(#d737d3c901)"><path fill="#cb6ce6" d="M 165.664062 4.582031 C 171.136719 11.347656 172.121094 19.628906 167.851562 23.089844 C 163.578125 26.546875 155.675781 23.867188 150.203125 17.101562 C 144.722656 10.34375 143.746094 2.0625 148.011719 -1.402344 C 152.285156 -4.855469 160.183594 -2.179688 165.664062 4.582031 " fill-opacity="1" fill-rule="nonzero"/></g><path fill="#f285b8" d="M 247.976562 692.171875 C 242.292969 688.6875 239.707031 681.632812 242.230469 676.492188 C 242.230469 676.492188 242.230469 676.492188 242.601562 671.113281 C 243.878906 652.402344 227.851562 636.066406 206.808594 634.628906 C 185.761719 633.191406 167.667969 647.191406 166.386719 665.902344 C 166.066406 670.632812 166.066406 670.632812 166.066406 670.632812 C 167.429688 675.476562 163.382812 681.207031 157.066406 683.359375 C 157.066406 683.359375 130.542969 692.40625 129.289062 710.765625 C 128.007812 729.472656 144.035156 745.808594 165.082031 747.246094 C 177.472656 748.09375 186.160156 742.488281 186.160156 742.488281 C 191.773438 738.871094 200.382812 739.601562 205.304688 744.101562 C 205.304688 744.101562 213.703125 751.78125 226.699219 752.667969 C 247.738281 754.105469 265.839844 740.105469 267.117188 721.402344 C 268.265625 704.613281 247.976562 692.171875 247.976562 692.171875 " fill-opacity="1" fill-rule="nonzero"/><path fill="#f285b8" d="M 196.175781 588.410156 C 197.632812 612.820312 186.3125 633.363281 170.894531 634.28125 C 155.480469 635.199219 141.804688 616.148438 140.347656 591.730469 C 138.894531 567.316406 150.210938 546.78125 165.625 545.863281 C 181.046875 544.9375 194.71875 563.988281 196.175781 588.410156 " fill-opacity="1" fill-rule="nonzero"/><path fill="#f285b8" d="M 274.351562 599.125 C 269.015625 622.992188 252.46875 639.617188 237.402344 636.242188 C 222.328125 632.878906 214.433594 610.792969 219.769531 586.925781 C 225.109375 563.050781 241.648438 546.433594 256.722656 549.800781 C 271.796875 553.171875 279.6875 575.257812 274.351562 599.125 " fill-opacity="1" fill-rule="nonzero"/><path fill="#f285b8" d="M 306.179688 667.890625 C 297.195312 686.246094 280.511719 696.53125 268.917969 690.859375 C 257.328125 685.183594 255.214844 665.703125 264.199219 647.339844 C 273.183594 628.984375 289.859375 618.695312 301.453125 624.371094 C 313.050781 630.042969 315.15625 649.527344 306.179688 667.890625 " fill-opacity="1" fill-rule="nonzero"/><path fill="#f285b8" d="M 141.722656 634.851562 C 148.550781 654.121094 144.222656 673.238281 132.058594 677.550781 C 119.890625 681.855469 104.5 669.726562 97.667969 650.464844 C 90.851562 631.199219 95.167969 612.085938 107.34375 607.769531 C 119.503906 603.464844 134.898438 615.589844 141.722656 634.851562 " fill-opacity="1" fill-rule="nonzero"/><path fill="#cb6ce6" d="M 652.777344 240.453125 C 646.429688 238.417969 642.242188 232.175781 643.476562 226.585938 C 643.476562 226.585938 643.476562 226.585938 642.550781 221.269531 C 639.351562 202.789062 619.90625 190.734375 599.121094 194.335938 C 578.335938 197.9375 564.082031 215.835938 567.285156 234.316406 C 568.097656 238.988281 568.097656 238.988281 568.097656 238.988281 C 570.574219 243.371094 568 249.894531 562.382812 253.484375 C 562.382812 253.484375 538.769531 268.582031 541.90625 286.714844 C 545.109375 305.1875 564.5625 317.242188 585.34375 313.640625 C 597.585938 311.519531 604.683594 304.011719 604.683594 304.011719 C 609.28125 299.167969 617.816406 297.832031 623.664062 301.027344 C 623.664062 301.027344 633.652344 306.492188 646.484375 304.273438 C 667.269531 300.664062 681.523438 282.769531 678.320312 264.292969 C 675.445312 247.71875 652.777344 240.453125 652.777344 240.453125 " fill-opacity="1" fill-rule="nonzero"/><path fill="#cb6ce6" d="M 538.027344 117.894531 C 523.269531 122.449219 517.160156 145.089844 524.371094 168.460938 C 531.582031 191.828125 549.394531 207.085938 564.148438 202.527344 C 578.90625 197.972656 585.023438 175.335938 577.804688 151.960938 C 570.59375 128.589844 552.789062 113.332031 538.027344 117.894531 " fill-opacity="1" fill-rule="nonzero"/><path fill="#cb6ce6" d="M 627.453125 100.074219 C 612.007812 100.382812 599.886719 120.460938 600.375 144.917969 C 600.867188 169.371094 613.773438 188.949219 629.21875 188.640625 C 644.660156 188.332031 656.78125 168.253906 656.289062 143.796875 C 655.800781 119.34375 642.894531 99.765625 627.453125 100.074219 " fill-opacity="1" fill-rule="nonzero"/><path fill="#cb6ce6" d="M 688.617188 161.882812 C 676.003906 159.125 662.253906 173.085938 657.882812 193.050781 C 653.519531 213.019531 660.199219 231.441406 672.808594 234.199219 C 685.421875 236.953125 699.175781 223.003906 703.539062 203.03125 C 707.910156 183.0625 701.222656 164.640625 688.617188 161.882812 " fill-opacity="1" fill-rule="nonzero"/><path fill="#cb6ce6" d="M 496.117188 191.882812 C 485.324219 198.960938 485.664062 218.550781 496.867188 235.648438 C 508.074219 252.738281 525.914062 260.863281 536.703125 253.78125 C 547.496094 246.707031 547.15625 227.117188 535.953125 210.015625 C 524.746094 192.925781 506.90625 184.808594 496.117188 191.882812 " fill-opacity="1" fill-rule="nonzero"/><g clip-path="url(#0d9abc3b1f)"><path fill="#f285b8" d="M 421.964844 19.503906 C 424.316406 23.632812 424.316406 23.632812 424.316406 23.632812 C 428.128906 26.914062 427.925781 33.921875 423.855469 39.207031 C 423.855469 39.207031 406.753906 61.40625 415.847656 77.402344 C 425.121094 93.695312 447.507812 98.449219 465.84375 88.011719 C 476.640625 81.878906 480.78125 72.402344 480.78125 72.402344 C 483.453125 66.289062 491.03125 62.136719 497.621094 63.160156 C 497.621094 63.160156 508.871094 64.917969 520.191406 58.480469 C 538.519531 48.046875 545.863281 26.375 536.589844 10.082031 C 528.269531 -4.542969 504.484375 -3.695312 504.484375 -3.695312 C 497.816406 -3.457031 491.765625 -7.90625 491.03125 -13.585938 C 491.03125 -13.585938 491.03125 -13.585938 488.359375 -18.277344 C 488.339844 -18.316406 488.320312 -18.34375 488.300781 -18.375 L 426.09375 -18.375 C 417.300781 -7.207031 415.1875 7.585938 421.964844 19.503906 " fill-opacity="1" fill-rule="nonzero"/></g><g clip-path="url(#b7cbeebd15)"><path fill="#f285b8" d="M 403.957031 785.210938 C 389.25 765.667969 367.324219 757.351562 354.988281 766.640625 C 342.640625 775.925781 344.566406 799.296875 359.273438 818.839844 C 361.957031 822.402344 364.882812 825.59375 367.949219 828.375 L 414.734375 828.375 C 418.882812 816.960938 415.089844 799.996094 403.957031 785.210938 " fill-opacity="1" fill-rule="nonzero"/></g><path fill="#f285b8" d="M 433.082031 719.570312 C 418.660156 725.097656 414.058594 748.09375 422.804688 770.929688 C 431.554688 793.777344 450.332031 807.8125 464.753906 802.292969 C 479.179688 796.769531 483.78125 773.773438 475.03125 750.929688 C 466.285156 728.089844 447.5 714.046875 433.082031 719.570312 " fill-opacity="1" fill-rule="nonzero"/><g clip-path="url(#1f249df095)"><path fill="#f285b8" d="M 539.5625 790.640625 C 536.898438 770.378906 524.371094 755.3125 511.574219 756.992188 C 498.777344 758.671875 490.566406 776.464844 493.222656 796.722656 C 495.171875 811.601562 502.445312 823.664062 511.230469 828.375 L 526.921875 828.375 C 536.328125 822.941406 541.800781 807.6875 539.5625 790.640625 " fill-opacity="1" fill-rule="nonzero"/></g><g clip-path="url(#1f3a1ddd6a)"><path fill="#f285b8" d="M 384.257812 7.265625 C 400.597656 19.550781 407.554688 37.867188 399.796875 48.183594 C 392.039062 58.507812 372.507812 56.90625 356.167969 44.621094 C 339.832031 32.335938 332.875 14.023438 340.628906 3.703125 C 348.382812 -6.613281 367.921875 -5.019531 384.257812 7.265625 " fill-opacity="1" fill-rule="nonzero"/></g><path fill="#f285b8" d="M 233.207031 252.480469 C 230.539062 246.367188 232.453125 239.101562 237.460938 236.332031 C 237.460938 236.332031 237.460938 236.332031 240.839844 232.125 C 252.589844 217.503906 248.777344 194.945312 232.328125 181.730469 C 215.882812 168.519531 193.03125 169.660156 181.289062 184.273438 C 178.316406 187.976562 178.316406 187.976562 178.316406 187.976562 C 176.671875 192.734375 170.074219 195.117188 163.664062 193.273438 C 163.664062 193.273438 136.730469 185.535156 125.207031 199.882812 C 113.457031 214.496094 117.269531 237.058594 133.710938 250.269531 C 143.398438 258.046875 153.726562 258.421875 153.726562 258.421875 C 160.394531 258.664062 167.042969 264.183594 168.511719 270.6875 C 168.511719 270.6875 171.011719 281.789062 181.167969 289.949219 C 197.613281 303.160156 220.464844 302.015625 232.203125 287.402344 C 242.746094 274.28125 233.207031 252.480469 233.207031 252.480469 " fill-opacity="1" fill-rule="nonzero"/><path fill="#f285b8" d="M 250.035156 137.726562 C 237.265625 158.589844 216.238281 168.972656 203.066406 160.910156 C 189.886719 152.851562 189.558594 129.402344 202.324219 108.535156 C 215.09375 87.671875 236.117188 77.289062 249.292969 85.355469 C 262.464844 93.414062 262.792969 116.863281 250.035156 137.726562 " fill-opacity="1" fill-rule="nonzero"/><path fill="#f285b8" d="M 308.050781 191.210938 C 290.023438 207.75 266.949219 211.925781 256.507812 200.542969 C 246.066406 189.164062 252.214844 166.535156 270.242188 150 C 288.261719 133.464844 311.339844 129.285156 321.777344 140.664062 C 332.21875 152.050781 326.070312 174.679688 308.050781 191.210938 " fill-opacity="1" fill-rule="nonzero"/><path fill="#f285b8" d="M 294.847656 265.824219 C 276.980469 275.753906 257.410156 274.65625 251.144531 263.375 C 244.871094 252.089844 254.28125 234.898438 272.152344 224.972656 C 290.015625 215.042969 309.585938 216.136719 315.847656 227.425781 C 322.121094 238.707031 312.714844 255.894531 294.847656 265.824219 " fill-opacity="1" fill-rule="nonzero"/><path fill="#f285b8" d="M 178.804688 144.707031 C 173.382812 164.417969 158.910156 177.628906 146.460938 174.207031 C 134.019531 170.789062 128.324219 152.039062 133.730469 132.324219 C 139.152344 112.617188 153.621094 99.414062 166.070312 102.832031 C 178.515625 106.246094 184.21875 125 178.804688 144.707031 " fill-opacity="1" fill-rule="nonzero"/><g clip-path="url(#31c16a2046)"><path fill="#f285b8" d="M 15.449219 87.988281 C 9.722656 84.566406 7.058594 77.546875 9.523438 72.378906 C 9.523438 72.378906 9.523438 72.378906 9.828125 66.984375 C 10.890625 48.261719 -5.320312 32.125 -26.386719 30.929688 C -47.445312 29.734375 -65.375 43.945312 -66.4375 62.667969 C -66.707031 67.40625 -66.707031 67.40625 -66.707031 67.40625 C -65.285156 72.230469 -69.269531 78.003906 -75.554688 80.230469 C -75.554688 80.230469 -101.976562 89.582031 -103.011719 107.957031 C -104.078125 126.679688 -87.859375 142.824219 -66.800781 144.019531 C -54.402344 144.722656 -45.78125 139.019531 -45.78125 139.019531 C -40.214844 135.335938 -31.589844 135.960938 -26.621094 140.410156 C -26.621094 140.410156 -18.132812 147.988281 -5.128906 148.730469 C 15.929688 149.917969 33.867188 135.710938 34.929688 116.996094 C 35.878906 100.195312 15.449219 87.988281 15.449219 87.988281 " fill-opacity="1" fill-rule="nonzero"/></g><g clip-path="url(#959bc1f361)"><path fill="#f285b8" d="M -13.976562 -16.925781 C -19.035156 7.003906 -10.886719 28.996094 4.222656 32.183594 C 19.335938 35.378906 35.683594 18.574219 40.742188 -5.363281 C 41.683594 -9.804688 42.160156 -14.175781 42.234375 -18.375 L -13.640625 -18.375 C -13.761719 -17.894531 -13.871094 -17.417969 -13.976562 -16.925781 " fill-opacity="1" fill-rule="nonzero"/></g><g clip-path="url(#fa53e1d044)"><path fill="#f285b8" d="M 22.546875 792.273438 C 7.738281 789.144531 -8.246094 805.222656 -13.640625 828.375 L 42.234375 828.375 C 42.535156 809.945312 34.851562 794.878906 22.546875 792.273438 " fill-opacity="1" fill-rule="nonzero"/></g><path fill="#f285b8" d="M 73.367188 63.027344 C 64.59375 81.488281 48.035156 91.96875 36.371094 86.429688 C 24.71875 80.890625 22.382812 61.433594 31.148438 42.972656 C 39.921875 24.511719 56.472656 14.03125 68.136719 19.570312 C 79.792969 25.109375 82.132812 44.566406 73.367188 63.027344 " fill-opacity="1" fill-rule="nonzero"/><path fill="#f285b8" d="M 711.414062 48.027344 C 713.585938 53.933594 716.566406 59.148438 720 63.421875 L 720 5.5 C 708.355469 10.363281 704.492188 29.164062 711.414062 48.027344 " fill-opacity="1" fill-rule="nonzero"/></g></g></g><g mask="url(#46d7968496)"><g transform="matrix(1, 0, 0, 1, 720, 0.000000000000039746)"><g clip-path="url(#ce9276d93f)"><path fill="#f285b8" d="M 101.648438 701.207031 C 95.1875 685.675781 71.480469 683.585938 71.480469 683.585938 C 64.839844 683.003906 59.378906 677.839844 59.347656 672.117188 C 59.347656 672.117188 59.347656 672.117188 57.28125 667.128906 C 50.074219 649.816406 28.449219 642.339844 8.972656 650.445312 C 5.695312 651.804688 2.695312 653.523438 0 655.519531 L 0 772.695312 C 7.007812 773.71875 14.574219 772.867188 21.847656 769.839844 C 33.3125 765.078125 38.589844 756.183594 38.589844 756.183594 C 41.996094 750.449219 50.027344 747.257812 56.441406 749.097656 C 56.441406 749.097656 67.386719 752.222656 79.414062 747.226562 C 98.886719 739.128906 108.84375 718.519531 101.648438 701.207031 " fill-opacity="1" fill-rule="nonzero"/><path fill="#f285b8" d="M 53.589844 588.539062 C 47.722656 564.796875 30.8125 548.546875 15.816406 552.253906 C 8.53125 554.058594 3.046875 560.242188 0 568.84375 L 0 604.566406 C 6.425781 626.878906 22.636719 641.808594 37.074219 638.246094 C 52.070312 634.539062 59.464844 612.289062 53.589844 588.539062 " fill-opacity="1" fill-rule="nonzero"/><path fill="#f285b8" d="M 112.742188 635.894531 C 112.890625 656.332031 102.542969 672.980469 89.640625 673.074219 C 76.730469 673.167969 66.152344 656.667969 66.007812 636.222656 C 65.863281 615.789062 76.199219 599.144531 89.109375 599.054688 C 102.019531 598.953125 112.597656 615.453125 112.742188 635.894531 " fill-opacity="1" fill-rule="nonzero"/><path fill="#ff66c4" d="M 181.039062 438.300781 C 175.351562 434.808594 172.769531 427.757812 175.296875 422.621094 C 175.296875 422.621094 175.296875 422.621094 175.664062 417.234375 C 176.9375 398.523438 160.917969 382.195312 139.871094 380.757812 C 118.824219 379.320312 100.726562 393.316406 99.445312 412.027344 C 99.125 416.761719 99.125 416.761719 99.125 416.761719 C 100.488281 421.601562 96.445312 427.324219 90.132812 429.480469 C 90.132812 429.480469 63.605469 438.527344 62.351562 456.890625 C 61.074219 475.59375 77.097656 491.929688 98.144531 493.367188 C 110.535156 494.214844 119.226562 488.609375 119.226562 488.609375 C 124.828125 485 133.441406 485.722656 138.363281 490.222656 C 138.363281 490.222656 146.761719 497.910156 159.757812 498.792969 C 180.804688 500.230469 198.902344 486.234375 200.175781 467.523438 C 201.324219 450.742188 181.039062 438.300781 181.039062 438.300781 " fill-opacity="1" fill-rule="nonzero"/><path fill="#ff66c4" d="M 129.238281 334.527344 C 130.691406 358.949219 119.375 379.484375 103.953125 380.402344 C 88.539062 381.320312 74.859375 362.269531 73.410156 337.855469 C 71.953125 313.441406 83.269531 292.902344 98.691406 291.984375 C 114.105469 291.0625 127.78125 310.117188 129.238281 334.527344 " fill-opacity="1" fill-rule="nonzero"/><path fill="#ff66c4" d="M 207.414062 345.246094 C 202.074219 369.121094 185.535156 385.738281 170.460938 382.363281 C 155.386719 379 147.496094 356.921875 152.832031 333.046875 C 158.167969 309.175781 174.707031 292.554688 189.789062 295.925781 C 204.855469 299.292969 212.75 321.378906 207.414062 345.246094 " fill-opacity="1" fill-rule="nonzero"/><path fill="#ff66c4" d="M 239.238281 414.011719 C 230.253906 432.371094 213.570312 442.65625 201.980469 436.988281 C 190.386719 431.308594 188.273438 411.824219 197.257812 393.46875 C 206.246094 375.105469 222.921875 364.824219 234.511719 370.492188 C 246.109375 376.167969 248.222656 395.648438 239.238281 414.011719 " fill-opacity="1" fill-rule="nonzero"/><path fill="#ff66c4" d="M 74.789062 380.980469 C 81.613281 400.25 77.289062 419.359375 65.117188 423.671875 C 52.953125 427.980469 37.558594 415.855469 30.726562 396.585938 C 23.90625 377.316406 28.234375 358.207031 40.398438 353.894531 C 52.5625 349.582031 67.964844 361.710938 74.789062 380.980469 " fill-opacity="1" fill-rule="nonzero"/><path fill="#cb6ce6" d="M 629.628906 495.539062 C 623.222656 493.667969 618.878906 487.546875 619.96875 481.921875 C 619.96875 481.921875 619.96875 481.921875 618.90625 476.632812 C 615.210938 458.242188 595.457031 446.707031 574.769531 450.851562 C 554.089844 455.007812 540.316406 473.277344 544.003906 491.660156 C 544.9375 496.3125 544.9375 496.3125 544.9375 496.3125 C 547.527344 500.625 545.132812 507.214844 539.609375 510.953125 C 539.609375 510.953125 516.394531 526.660156 520.019531 544.707031 C 523.707031 563.089844 543.464844 574.632812 564.144531 570.480469 C 576.324219 568.039062 583.230469 560.347656 583.230469 560.347656 C 587.691406 555.382812 596.191406 553.816406 602.125 556.859375 C 602.125 556.859375 612.25 562.066406 625.015625 559.507812 C 645.699219 555.351562 659.476562 537.082031 655.789062 518.699219 C 652.480469 502.199219 629.628906 495.539062 629.628906 495.539062 " fill-opacity="1" fill-rule="nonzero"/><path fill="#cb6ce6" d="M 552.351562 409.054688 C 560.183594 432.234375 554.664062 455.019531 540.035156 459.96875 C 525.398438 464.910156 507.195312 450.132812 499.363281 426.957031 C 491.535156 403.785156 497.046875 380.992188 511.683594 376.050781 C 526.3125 371.101562 544.523438 385.882812 552.351562 409.054688 " fill-opacity="1" fill-rule="nonzero"/><path fill="#cb6ce6" d="M 630.59375 398.824219 C 631.722656 423.265625 620.140625 443.648438 604.710938 444.363281 C 589.28125 445.078125 575.859375 425.847656 574.726562 401.417969 C 573.589844 376.984375 585.179688 356.597656 600.601562 355.882812 C 616.035156 355.167969 629.457031 374.398438 630.59375 398.824219 " fill-opacity="1" fill-rule="nonzero"/><path fill="#cb6ce6" d="M 679.394531 456.792969 C 675.554688 476.867188 662.167969 491.179688 649.488281 488.761719 C 636.808594 486.339844 629.640625 468.09375 633.480469 448.019531 C 637.320312 427.941406 650.703125 413.628906 663.378906 416.050781 C 676.058594 418.472656 683.21875 436.71875 679.394531 456.792969 " fill-opacity="1" fill-rule="nonzero"/><path fill="#cb6ce6" d="M 512.039062 468.199219 C 523.691406 484.992188 524.550781 504.570312 513.945312 511.925781 C 503.34375 519.289062 485.300781 511.636719 473.644531 494.851562 C 461.988281 478.054688 461.136719 458.484375 471.734375 451.117188 C 482.339844 443.757812 500.386719 451.40625 512.039062 468.199219 " fill-opacity="1" fill-rule="nonzero"/><path fill="#cb6ce6" d="M 150.496094 231.460938 C 147.71875 230.863281 145.6875 228.398438 145.976562 225.976562 C 145.976562 225.976562 145.976562 225.976562 145.359375 223.761719 C 143.226562 216.070312 134.476562 211.78125 125.820312 214.183594 C 117.164062 216.578125 111.882812 224.761719 114.015625 232.453125 C 114.550781 234.402344 114.550781 234.402344 114.550781 234.402344 C 115.785156 236.152344 114.972656 239.027344 112.742188 240.78125 C 112.742188 240.78125 103.371094 248.171875 105.464844 255.71875 C 107.597656 263.414062 116.34375 267.699219 125 265.304688 C 130.09375 263.886719 132.789062 260.410156 132.789062 260.410156 C 134.53125 258.164062 138.09375 257.238281 140.703125 258.347656 C 140.703125 258.347656 145.167969 260.246094 150.507812 258.761719 C 159.160156 256.367188 164.449219 248.183594 162.316406 240.492188 C 160.398438 233.585938 150.496094 231.460938 150.496094 231.460938 " fill-opacity="1" fill-rule="nonzero"/><path fill="#cb6ce6" d="M 115.011719 197.125 C 119.046875 206.71875 117.414062 216.570312 111.351562 219.117188 C 105.292969 221.667969 97.101562 215.953125 93.066406 206.359375 C 89.03125 196.757812 90.664062 186.90625 96.726562 184.359375 C 102.785156 181.808594 110.976562 187.523438 115.011719 197.125 " fill-opacity="1" fill-rule="nonzero"/><path fill="#cb6ce6" d="M 147.925781 190.367188 C 149.15625 200.707031 144.867188 209.71875 138.335938 210.5 C 131.804688 211.28125 125.511719 203.53125 124.277344 193.1875 C 123.042969 182.84375 127.335938 173.835938 133.859375 173.054688 C 140.398438 172.273438 146.683594 180.027344 147.925781 190.367188 " fill-opacity="1" fill-rule="nonzero"/><path fill="#cb6ce6" d="M 170.425781 213.472656 C 169.417969 222.117188 164.171875 228.605469 158.71875 227.96875 C 153.257812 227.332031 149.65625 219.804688 150.667969 211.164062 C 151.679688 202.519531 156.914062 196.027344 162.375 196.664062 C 167.835938 197.308594 171.4375 204.828125 170.425781 213.472656 " fill-opacity="1" fill-rule="nonzero"/><path fill="#cb6ce6" d="M 99.71875 223.472656 C 105.1875 230.246094 106.152344 238.535156 101.878906 241.988281 C 97.601562 245.441406 89.707031 242.75 84.238281 235.976562 C 78.773438 229.203125 77.800781 220.921875 82.078125 217.46875 C 86.351562 214.019531 94.253906 216.707031 99.71875 223.472656 " fill-opacity="1" fill-rule="nonzero"/><path fill="#cb6ce6" d="M 330.039062 462.503906 C 329.726562 459.679688 331.425781 456.96875 333.808594 456.476562 C 333.808594 456.476562 333.808594 456.476562 335.714844 455.191406 C 342.339844 450.734375 343.636719 441.082031 338.625 433.625 C 333.609375 426.175781 324.171875 423.757812 317.550781 428.210938 C 315.878906 429.339844 315.878906 429.339844 315.878906 429.339844 C 314.605469 431.066406 311.617188 431.203125 309.25 429.644531 C 309.25 429.644531 299.273438 423.09375 292.777344 427.46875 C 286.15625 431.925781 284.847656 441.582031 289.871094 449.027344 C 292.824219 453.417969 296.976562 454.875 296.976562 454.875 C 299.65625 455.816406 301.664062 458.898438 301.4375 461.726562 C 301.4375 461.726562 301.050781 466.558594 304.144531 471.160156 C 309.164062 478.605469 318.59375 481.035156 325.222656 476.574219 C 331.160156 472.574219 330.039062 462.503906 330.039062 462.503906 " fill-opacity="1" fill-rule="nonzero"/><path fill="#cb6ce6" d="M 351.382812 417.972656 C 343.550781 424.84375 333.695312 426.40625 329.355469 421.464844 C 325.019531 416.523438 327.847656 406.949219 335.675781 400.078125 C 343.5 393.214844 353.363281 391.644531 357.703125 396.585938 C 362.039062 401.527344 359.210938 411.109375 351.382812 417.972656 " fill-opacity="1" fill-rule="nonzero"/><path fill="#cb6ce6" d="M 368.207031 447.054688 C 358.792969 451.496094 348.882812 450.277344 346.074219 444.332031 C 343.269531 438.382812 348.632812 429.957031 358.050781 425.519531 C 367.46875 421.070312 377.371094 422.292969 380.179688 428.238281 C 382.988281 434.183594 377.625 442.609375 368.207031 447.054688 " fill-opacity="1" fill-rule="nonzero"/><path fill="#cb6ce6" d="M 353.417969 475.71875 C 344.890625 477.492188 337.082031 474.578125 335.953125 469.203125 C 334.832031 463.820312 340.828125 458.019531 349.347656 456.234375 C 357.867188 454.464844 365.683594 457.375 366.804688 462.757812 C 367.925781 468.140625 361.933594 473.933594 353.417969 475.71875 " fill-opacity="1" fill-rule="nonzero"/><path fill="#cb6ce6" d="M 321.542969 411.8125 C 316.847656 419.140625 309.296875 422.679688 304.667969 419.71875 C 300.035156 416.753906 300.085938 408.414062 304.78125 401.082031 C 309.472656 393.75 317.027344 390.214844 321.660156 393.171875 C 326.285156 396.140625 326.234375 404.480469 321.542969 411.8125 " fill-opacity="1" fill-rule="nonzero"/><path fill="#ff66c4" d="M 644.664062 671.9375 C 644.34375 669.117188 646.042969 666.40625 648.429688 665.914062 C 648.429688 665.914062 648.429688 665.914062 650.332031 664.628906 C 656.957031 660.171875 658.261719 650.519531 653.242188 643.0625 C 648.226562 635.613281 638.796875 633.191406 632.167969 637.648438 C 630.496094 638.777344 630.496094 638.777344 630.496094 638.777344 C 629.222656 640.503906 626.234375 640.640625 623.867188 639.078125 C 623.867188 639.078125 613.890625 632.53125 607.394531 636.90625 C 600.773438 641.363281 599.464844 651.023438 604.488281 658.464844 C 607.445312 662.855469 611.59375 664.3125 611.59375 664.3125 C 614.273438 665.25 616.28125 668.335938 616.058594 671.171875 C 616.058594 671.171875 615.667969 675.996094 618.765625 680.59375 C 623.78125 688.042969 633.210938 690.472656 639.839844 686.015625 C 645.78125 682.011719 644.664062 671.9375 644.664062 671.9375 " fill-opacity="1" fill-rule="nonzero"/><path fill="#ff66c4" d="M 666 627.417969 C 658.175781 634.28125 648.3125 635.84375 643.976562 630.902344 C 639.636719 625.960938 642.464844 616.386719 650.292969 609.515625 C 658.125 602.648438 667.980469 601.085938 672.320312 606.023438 C 676.65625 610.972656 673.828125 620.546875 666 627.417969 " fill-opacity="1" fill-rule="nonzero"/><path fill="#ff66c4" d="M 682.824219 656.488281 C 673.410156 660.933594 663.5 659.71875 660.695312 653.765625 C 657.886719 647.820312 663.25 639.402344 672.667969 634.957031 C 682.085938 630.515625 691.992188 631.730469 694.796875 637.675781 C 697.605469 643.621094 692.242188 652.046875 682.824219 656.488281 " fill-opacity="1" fill-rule="nonzero"/><path fill="#ff66c4" d="M 668.035156 685.15625 C 659.515625 686.933594 651.699219 684.015625 650.570312 678.640625 C 649.449219 673.257812 655.445312 667.457031 663.964844 665.679688 C 672.484375 663.898438 680.304688 666.820312 681.429688 672.195312 C 682.550781 677.578125 676.550781 683.378906 668.035156 685.15625 " fill-opacity="1" fill-rule="nonzero"/><path fill="#ff66c4" d="M 636.160156 621.25 C 631.464844 628.578125 623.914062 632.121094 619.285156 629.15625 C 614.660156 626.191406 614.710938 617.847656 619.402344 610.519531 C 624.097656 603.195312 631.648438 599.648438 636.277344 602.609375 C 640.902344 605.578125 640.851562 613.925781 636.160156 621.25 " fill-opacity="1" fill-rule="nonzero"/><g clip-path="url(#c50bc77122)"><path fill="#cb6ce6" d="M 735.953125 461.558594 C 741.425781 468.324219 742.410156 476.605469 738.136719 480.0625 C 733.863281 483.523438 725.960938 480.84375 720.488281 474.078125 C 715.007812 467.320312 714.03125 459.039062 718.296875 455.570312 C 722.570312 452.121094 730.472656 454.796875 735.953125 461.558594 " fill-opacity="1" fill-rule="nonzero"/></g><path fill="#cb6ce6" d="M 554.511719 266.867188 C 551.730469 266.277344 549.695312 263.816406 549.976562 261.394531 C 549.976562 261.394531 549.976562 261.394531 549.359375 259.175781 C 547.214844 251.492188 538.460938 247.210938 529.808594 249.628906 C 521.160156 252.035156 515.882812 260.230469 518.027344 267.917969 C 518.574219 269.867188 518.574219 269.867188 518.574219 269.867188 C 519.808594 271.613281 519 274.492188 516.777344 276.253906 C 516.777344 276.253906 507.410156 283.65625 509.515625 291.203125 C 511.664062 298.886719 520.417969 303.164062 529.066406 300.75 C 534.160156 299.332031 536.851562 295.847656 536.851562 295.847656 C 538.589844 293.605469 542.148438 292.664062 544.765625 293.773438 C 544.765625 293.773438 549.222656 295.664062 554.5625 294.175781 C 563.214844 291.757812 568.488281 283.570312 566.34375 275.878906 C 564.421875 268.980469 554.511719 266.867188 554.511719 266.867188 " fill-opacity="1" fill-rule="nonzero"/><path fill="#cb6ce6" d="M 518.972656 232.589844 C 523.023438 242.179688 521.402344 252.027344 515.34375 254.589844 C 509.289062 257.148438 501.097656 251.445312 497.042969 241.855469 C 492.984375 232.261719 494.605469 222.410156 500.671875 219.851562 C 506.722656 217.292969 514.917969 222.996094 518.972656 232.589844 " fill-opacity="1" fill-rule="nonzero"/><path fill="#cb6ce6" d="M 551.875 225.777344 C 553.121094 236.113281 548.847656 245.136719 542.316406 245.925781 C 535.789062 246.714844 529.480469 238.976562 528.234375 228.640625 C 526.980469 218.296875 531.257812 209.28125 537.78125 208.484375 C 544.3125 207.699219 550.621094 215.441406 551.875 225.777344 " fill-opacity="1" fill-rule="nonzero"/><path fill="#cb6ce6" d="M 574.417969 248.851562 C 573.417969 257.496094 568.1875 263.992188 562.726562 263.371094 C 557.269531 262.738281 553.652344 255.21875 554.648438 246.570312 C 555.648438 237.933594 560.878906 231.429688 566.335938 232.058594 C 571.796875 232.6875 575.40625 240.203125 574.417969 248.851562 " fill-opacity="1" fill-rule="nonzero"/><path fill="#cb6ce6" d="M 503.722656 258.964844 C 509.203125 265.730469 510.179688 274.015625 505.90625 277.472656 C 501.636719 280.929688 493.742188 278.253906 488.261719 271.488281 C 482.78125 264.726562 481.804688 256.445312 486.070312 252.980469 C 490.339844 249.527344 498.242188 252.207031 503.722656 258.964844 " fill-opacity="1" fill-rule="nonzero"/><g clip-path="url(#fa90e65116)"><path fill="#ff66c4" d="M 343.199219 12.484375 C 340.421875 11.890625 338.382812 9.429688 338.667969 7.007812 C 338.667969 7.007812 338.667969 7.007812 338.054688 4.792969 C 335.90625 -2.894531 327.152344 -7.171875 318.503906 -4.757812 C 309.851562 -2.347656 304.578125 5.847656 306.722656 13.53125 C 307.265625 15.480469 307.265625 15.480469 307.265625 15.480469 C 308.5 17.226562 307.695312 20.109375 305.460938 21.867188 C 305.460938 21.867188 296.105469 29.269531 298.210938 36.816406 C 300.355469 44.503906 309.105469 48.78125 317.761719 46.367188 C 322.855469 44.941406 325.542969 41.464844 325.542969 41.464844 C 327.285156 39.21875 330.839844 38.28125 333.453125 39.390625 C 333.453125 39.390625 337.914062 41.28125 343.257812 39.789062 C 351.90625 37.375 357.183594 29.183594 355.039062 21.492188 C 353.113281 14.597656 343.199219 12.484375 343.199219 12.484375 " fill-opacity="1" fill-rule="nonzero"/></g><g clip-path="url(#f74fb232b4)"><path fill="#ff66c4" d="M 285.734375 -12.527344 C 289.785156 -2.941406 297.980469 2.761719 304.039062 0.203125 C 309.375 -2.046875 311.265625 -9.960938 308.867188 -18.375 L 283.960938 -18.375 C 284.324219 -16.460938 284.90625 -14.488281 285.734375 -12.527344 " fill-opacity="1" fill-rule="nonzero"/></g><g clip-path="url(#ccd65514d4)"><path fill="#ff66c4" d="M 340.566406 818.144531 C 339.3125 807.808594 333.007812 800.0625 326.476562 800.851562 C 319.945312 801.644531 315.675781 810.667969 316.925781 821.003906 C 317.242188 823.667969 317.910156 826.15625 318.824219 828.375 L 339.929688 828.375 C 340.742188 825.335938 341.007812 821.832031 340.566406 818.144531 " fill-opacity="1" fill-rule="nonzero"/></g><g clip-path="url(#9eaf34583f)"><path fill="#ff66c4" d="M 343.335938 -7.816406 C 342.34375 0.832031 345.960938 8.355469 351.421875 8.984375 C 356.882812 9.609375 362.105469 3.109375 363.109375 -5.53125 C 363.6875 -10.585938 362.6875 -15.246094 360.675781 -18.375 L 347.386719 -18.375 C 345.335938 -15.757812 343.828125 -12.042969 343.335938 -7.816406 " fill-opacity="1" fill-rule="nonzero"/></g><g clip-path="url(#3dd3db87fb)"><path fill="#ff66c4" d="M 292.414062 4.582031 C 297.890625 11.347656 298.875 19.628906 294.601562 23.089844 C 290.328125 26.546875 282.425781 23.867188 276.953125 17.101562 C 271.472656 10.34375 270.496094 2.0625 274.761719 -1.402344 C 279.035156 -4.855469 286.9375 -2.179688 292.414062 4.582031 " fill-opacity="1" fill-rule="nonzero"/></g><path fill="#cb6ce6" d="M 374.726562 692.171875 C 369.042969 688.6875 366.457031 681.632812 368.984375 676.492188 C 368.984375 676.492188 368.984375 676.492188 369.351562 671.113281 C 370.628906 652.402344 354.605469 636.066406 333.558594 634.628906 C 312.511719 633.191406 294.417969 647.191406 293.136719 665.902344 C 292.816406 670.632812 292.816406 670.632812 292.816406 670.632812 C 294.179688 675.476562 290.132812 681.207031 283.820312 683.359375 C 283.820312 683.359375 257.292969 692.40625 256.039062 710.765625 C 254.757812 729.472656 270.785156 745.808594 291.832031 747.246094 C 304.222656 748.09375 312.910156 742.488281 312.910156 742.488281 C 318.523438 738.871094 327.132812 739.601562 332.054688 744.101562 C 332.054688 744.101562 340.453125 751.78125 353.449219 752.667969 C 374.488281 754.105469 392.589844 740.105469 393.867188 721.402344 C 395.015625 704.613281 374.726562 692.171875 374.726562 692.171875 " fill-opacity="1" fill-rule="nonzero"/><path fill="#cb6ce6" d="M 322.925781 588.410156 C 324.382812 612.820312 313.0625 633.363281 297.644531 634.28125 C 282.230469 635.199219 268.554688 616.148438 267.097656 591.730469 C 265.644531 567.316406 276.960938 546.78125 292.375 545.863281 C 307.796875 544.9375 321.46875 563.988281 322.925781 588.410156 " fill-opacity="1" fill-rule="nonzero"/><path fill="#cb6ce6" d="M 401.101562 599.125 C 395.765625 622.992188 379.222656 639.617188 364.152344 636.242188 C 349.078125 632.878906 341.183594 610.792969 346.519531 586.925781 C 351.859375 563.050781 368.398438 546.433594 383.472656 549.800781 C 398.546875 553.171875 406.4375 575.257812 401.101562 599.125 " fill-opacity="1" fill-rule="nonzero"/><path fill="#cb6ce6" d="M 432.929688 667.890625 C 423.945312 686.246094 407.261719 696.53125 395.667969 690.859375 C 384.078125 685.183594 381.964844 665.703125 390.949219 647.339844 C 399.933594 628.984375 416.609375 618.695312 428.207031 624.371094 C 439.800781 630.042969 441.90625 649.527344 432.929688 667.890625 " fill-opacity="1" fill-rule="nonzero"/><path fill="#cb6ce6" d="M 268.476562 634.851562 C 275.300781 654.121094 270.976562 673.238281 258.808594 677.550781 C 246.640625 681.855469 231.25 669.726562 224.417969 650.464844 C 217.601562 631.199219 221.917969 612.085938 234.09375 607.769531 C 246.253906 603.464844 261.648438 615.589844 268.476562 634.851562 " fill-opacity="1" fill-rule="nonzero"/><g clip-path="url(#3a0d7da5e9)"><path fill="#ff66c4" d="M 779.527344 240.453125 C 773.183594 238.417969 768.996094 232.175781 770.226562 226.585938 C 770.226562 226.585938 770.226562 226.585938 769.304688 221.269531 C 766.101562 202.789062 746.65625 190.734375 725.871094 194.335938 C 705.085938 197.9375 690.832031 215.835938 694.035156 234.316406 C 694.847656 238.988281 694.847656 238.988281 694.847656 238.988281 C 697.324219 243.371094 694.75 249.894531 689.132812 253.484375 C 689.132812 253.484375 665.519531 268.582031 668.65625 286.714844 C 671.859375 305.1875 691.3125 317.242188 712.097656 313.640625 C 724.335938 311.519531 731.4375 304.011719 731.4375 304.011719 C 736.03125 299.167969 744.566406 297.832031 750.414062 301.027344 C 750.414062 301.027344 760.402344 306.492188 773.234375 304.273438 C 794.019531 300.664062 808.273438 282.769531 805.070312 264.292969 C 802.195312 247.71875 779.527344 240.453125 779.527344 240.453125 " fill-opacity="1" fill-rule="nonzero"/></g><path fill="#ff66c4" d="M 664.777344 117.894531 C 650.019531 122.449219 643.910156 145.089844 651.121094 168.460938 C 658.332031 191.828125 676.144531 207.085938 690.898438 202.527344 C 705.65625 197.972656 711.773438 175.335938 704.554688 151.960938 C 697.34375 128.589844 679.539062 113.332031 664.777344 117.894531 " fill-opacity="1" fill-rule="nonzero"/><path fill="#ff66c4" d="M 622.867188 191.882812 C 612.074219 198.960938 612.414062 218.550781 623.617188 235.648438 C 634.828125 252.738281 652.664062 260.863281 663.453125 253.78125 C 674.25 246.707031 673.90625 227.117188 662.703125 210.015625 C 651.496094 192.925781 633.65625 184.808594 622.867188 191.882812 " fill-opacity="1" fill-rule="nonzero"/><g clip-path="url(#1a27429be6)"><path fill="#cb6ce6" d="M 548.714844 19.503906 C 551.066406 23.632812 551.066406 23.632812 551.066406 23.632812 C 554.878906 26.914062 554.675781 33.921875 550.605469 39.207031 C 550.605469 39.207031 533.503906 61.40625 542.601562 77.402344 C 551.875 93.695312 574.257812 98.449219 592.59375 88.011719 C 603.390625 81.878906 607.53125 72.402344 607.53125 72.402344 C 610.203125 66.289062 617.78125 62.136719 624.371094 63.160156 C 624.371094 63.160156 635.621094 64.917969 646.941406 58.480469 C 665.269531 48.046875 672.613281 26.375 663.339844 10.082031 C 655.019531 -4.542969 631.238281 -3.695312 631.238281 -3.695312 C 624.570312 -3.457031 618.519531 -7.90625 617.78125 -13.585938 C 617.78125 -13.585938 617.78125 -13.585938 615.113281 -18.277344 C 615.09375 -18.316406 615.074219 -18.34375 615.050781 -18.375 L 552.84375 -18.375 C 544.050781 -7.207031 541.9375 7.585938 548.714844 19.503906 " fill-opacity="1" fill-rule="nonzero"/></g><g clip-path="url(#2738457385)"><path fill="#cb6ce6" d="M 530.707031 785.210938 C 516 765.667969 494.074219 757.351562 481.738281 766.640625 C 469.394531 775.925781 471.316406 799.296875 486.023438 818.839844 C 488.707031 822.402344 491.632812 825.59375 494.699219 828.375 L 541.484375 828.375 C 545.632812 816.960938 541.839844 799.996094 530.707031 785.210938 " fill-opacity="1" fill-rule="nonzero"/></g><path fill="#cb6ce6" d="M 559.832031 719.570312 C 545.410156 725.097656 540.808594 748.09375 549.554688 770.929688 C 558.304688 793.777344 577.082031 807.8125 591.503906 802.292969 C 605.929688 796.769531 610.53125 773.773438 601.78125 750.929688 C 593.035156 728.089844 574.253906 714.046875 559.832031 719.570312 " fill-opacity="1" fill-rule="nonzero"/><g clip-path="url(#6f7e24fc1c)"><path fill="#cb6ce6" d="M 666.3125 790.640625 C 663.648438 770.378906 651.121094 755.3125 638.324219 756.992188 C 625.527344 758.671875 617.316406 776.464844 619.976562 796.722656 C 621.925781 811.601562 629.195312 823.664062 637.984375 828.375 L 653.675781 828.375 C 663.078125 822.941406 668.550781 807.6875 666.3125 790.640625 " fill-opacity="1" fill-rule="nonzero"/></g><g clip-path="url(#5aa999cc4d)"><path fill="#cb6ce6" d="M 511.007812 7.265625 C 527.347656 19.550781 534.304688 37.867188 526.546875 48.183594 C 518.789062 58.507812 499.261719 56.90625 482.917969 44.621094 C 466.582031 32.335938 459.628906 14.023438 467.378906 3.703125 C 475.136719 -6.613281 494.671875 -5.019531 511.007812 7.265625 " fill-opacity="1" fill-rule="nonzero"/></g><path fill="#f285b8" d="M 359.960938 252.480469 C 357.289062 246.367188 359.203125 239.101562 364.210938 236.332031 C 364.210938 236.332031 364.210938 236.332031 367.589844 232.125 C 379.339844 217.503906 375.527344 194.945312 359.078125 181.730469 C 342.632812 168.519531 319.78125 169.660156 308.042969 184.273438 C 305.070312 187.976562 305.070312 187.976562 305.070312 187.976562 C 303.421875 192.734375 296.824219 195.117188 290.414062 193.273438 C 290.414062 193.273438 263.480469 185.535156 251.957031 199.882812 C 240.210938 214.496094 244.023438 237.058594 260.460938 250.269531 C 270.148438 258.046875 280.476562 258.421875 280.476562 258.421875 C 287.144531 258.664062 293.792969 264.183594 295.265625 270.6875 C 295.265625 270.6875 297.765625 281.789062 307.917969 289.949219 C 324.363281 303.160156 347.214844 302.015625 358.957031 287.402344 C 369.496094 274.28125 359.960938 252.480469 359.960938 252.480469 " fill-opacity="1" fill-rule="nonzero"/><path fill="#f285b8" d="M 376.785156 137.726562 C 364.015625 158.589844 342.988281 168.972656 329.816406 160.910156 C 316.636719 152.851562 316.308594 129.402344 329.074219 108.535156 C 341.847656 87.671875 362.867188 77.289062 376.042969 85.355469 C 389.214844 93.414062 389.542969 116.863281 376.785156 137.726562 " fill-opacity="1" fill-rule="nonzero"/><path fill="#f285b8" d="M 434.800781 191.210938 C 416.773438 207.75 393.699219 211.925781 383.257812 200.542969 C 372.816406 189.164062 378.964844 166.535156 396.992188 150 C 415.015625 133.464844 438.089844 129.285156 448.53125 140.664062 C 458.972656 152.050781 452.820312 174.679688 434.800781 191.210938 " fill-opacity="1" fill-rule="nonzero"/><path fill="#f285b8" d="M 421.597656 265.824219 C 403.734375 275.753906 384.164062 274.65625 377.894531 263.375 C 371.621094 252.089844 381.03125 234.898438 398.902344 224.972656 C 416.765625 215.042969 436.335938 216.136719 442.597656 227.425781 C 448.871094 238.707031 439.464844 255.894531 421.597656 265.824219 " fill-opacity="1" fill-rule="nonzero"/><path fill="#f285b8" d="M 305.554688 144.707031 C 300.132812 164.417969 285.664062 177.628906 273.214844 174.207031 C 260.769531 170.789062 255.074219 152.039062 260.480469 132.324219 C 265.902344 112.617188 280.371094 99.414062 292.824219 102.832031 C 305.265625 106.246094 310.96875 125 305.554688 144.707031 " fill-opacity="1" fill-rule="nonzero"/><path fill="#cb6ce6" d="M 142.203125 87.988281 C 136.472656 84.566406 133.808594 77.546875 136.273438 72.378906 C 136.273438 72.378906 136.273438 72.378906 136.578125 66.984375 C 137.640625 48.261719 121.429688 32.125 100.363281 30.929688 C 79.304688 29.734375 61.375 43.945312 60.3125 62.667969 C 60.042969 67.40625 60.042969 67.40625 60.042969 67.40625 C 61.464844 72.230469 57.484375 78.003906 51.195312 80.230469 C 51.195312 80.230469 24.773438 89.582031 23.738281 107.957031 C 22.675781 126.679688 38.890625 142.824219 59.949219 144.019531 C 72.347656 144.722656 80.972656 139.019531 80.972656 139.019531 C 86.535156 135.335938 95.160156 135.960938 100.128906 140.410156 C 100.128906 140.410156 108.621094 147.988281 121.621094 148.730469 C 142.679688 149.917969 160.617188 135.710938 161.679688 116.996094 C 162.632812 100.195312 142.203125 87.988281 142.203125 87.988281 " fill-opacity="1" fill-rule="nonzero"/><g clip-path="url(#bf1ebe6d73)"><path fill="#cb6ce6" d="M 33.410156 -11.195312 C 35.148438 13.203125 49.050781 32.09375 64.453125 30.996094 C 79.855469 29.894531 90.933594 9.226562 89.199219 -15.171875 C 89.121094 -16.25 89.011719 -17.320312 88.886719 -18.375 L 33.273438 -18.375 C 33.199219 -16.03125 33.238281 -13.628906 33.410156 -11.195312 " fill-opacity="1" fill-rule="nonzero"/></g><g clip-path="url(#5069db5dbd)"><path fill="#cb6ce6" d="M 58.160156 789.390625 C 44.292969 790.375 33.9375 807.222656 33.273438 828.375 L 88.886719 828.375 C 86.214844 805.550781 72.878906 788.335938 58.160156 789.390625 " fill-opacity="1" fill-rule="nonzero"/></g><g clip-path="url(#a8f7d1376b)"><path fill="#cb6ce6" d="M 112.773438 -16.925781 C 107.714844 7.003906 115.863281 28.996094 130.972656 32.183594 C 146.085938 35.378906 162.433594 18.574219 167.492188 -5.363281 C 168.433594 -9.804688 168.910156 -14.175781 168.984375 -18.375 L 113.109375 -18.375 C 112.992188 -17.894531 112.878906 -17.417969 112.773438 -16.925781 " fill-opacity="1" fill-rule="nonzero"/></g><g clip-path="url(#a701b923a1)"><path fill="#cb6ce6" d="M 149.296875 792.273438 C 134.488281 789.144531 118.503906 805.222656 113.109375 828.375 L 168.984375 828.375 C 169.285156 809.945312 161.601562 794.878906 149.296875 792.273438 " fill-opacity="1" fill-rule="nonzero"/></g><path fill="#cb6ce6" d="M 200.117188 63.027344 C 191.34375 81.488281 174.785156 91.96875 163.125 86.429688 C 151.46875 80.890625 149.132812 61.433594 157.898438 42.972656 C 166.671875 24.511719 183.226562 14.03125 194.886719 19.570312 C 206.542969 25.109375 208.886719 44.566406 200.117188 63.027344 " fill-opacity="1" fill-rule="nonzero"/><path fill="#cb6ce6" d="M 35.292969 31.910156 C 28.238281 12.726562 12.707031 0.773438 0.589844 5.222656 C 0.386719 5.304688 0.203125 5.414062 0 5.5 L 0 63.421875 C 7.71875 73.011719 17.734375 77.789062 26.121094 74.710938 C 38.234375 70.253906 42.335938 51.097656 35.292969 31.910156 " fill-opacity="1" fill-rule="nonzero"/></g></g></g></svg>